<?xml version="1.0" encoding="UTF-8"?>
<svg xmlns="http://www.w3.org/2000/svg" xmlns:xlink="http://www.w3.org/1999/xlink" version="1.1" width="356.25286650657654" height="331.984375">
  <defs>
    <clipPath id="clip1">
      <path d="M0 0L356.25286650657654 0L356.25286650657654 331.984375L0 331.984375L0 0"/>
    </clipPath>
    <clipPath id="clip2">
      <path d="M50.349921259842517 37.349921259842461L251.30845705775766 37.349921259842461L251.30845705775766 289.63445374015748L50.349921259842517 289.63445374015748L50.349921259842517 37.349921259842461"/>
    </clipPath>
    <clipPath id="clip3">
      <path d="M267.80845705775766 171.4921875L352.46955941996237 171.4921875L352.46955941996237 189.05880167322834L267.80845705775766 189.05880167322834L267.80845705775766 171.4921875"/>
    </clipPath>
  </defs>
  <g clip-path="url(#clip1)">
    <path d="M0.12 0.12L0.12 331.864375L356.13286650657653 331.864375L356.13286650657653 0.12L0.12 0.12z" fill="#ffffff" stroke-width="0.23999999999999999" stroke="#000000"/>
    <path d="M50.349921259842517 37.349921259842461L50.349921259842517 289.63445374015748L251.30845705775766 289.63445374015748L251.30845705775766 37.349921259842461L50.349921259842517 37.349921259842461z" fill="#c0c0c0" stroke-width="0.23999999999999999" stroke="#848284"/>
    <path d="M50.349921259842517 289.63445374015748L251.30845705775766 289.63445374015748" fill="none" stroke-width="0.40000000596046448" stroke="#000000"/>
    <path d="M50.349921259842517 247.58703166010497L251.30845705775766 247.58703166010497" fill="none" stroke-width="0.40000000596046448" stroke="#000000"/>
    <path d="M50.349921259842517 205.53960958005248L251.30845705775766 205.53960958005248" fill="none" stroke-width="0.40000000596046448" stroke="#000000"/>
    <path d="M50.349921259842517 163.49218749999997L251.30845705775766 163.49218749999997" fill="none" stroke-width="0.40000000596046448" stroke="#000000"/>
    <path d="M50.349921259842517 121.44476541994747L251.30845705775766 121.44476541994747" fill="none" stroke-width="0.40000000596046448" stroke="#000000"/>
    <path d="M50.349921259842517 79.397343339894974L251.30845705775766 79.397343339894974" fill="none" stroke-width="0.40000000596046448" stroke="#000000"/>
    <path d="M50.349921259842517 37.349921259842482L251.30845705775766 37.349921259842482" fill="none" stroke-width="0.40000000596046448" stroke="#000000"/>
    <path d="M50.349921259842517 289.63445374015748L251.30845705775769 289.63445374015748" fill="none" stroke-width="0.23999999999999999" stroke="#000000"/>
    <path d="M50.349921259842517 293.75445374015749L50.349921259842517 289.63445374015748" fill="none" stroke-width="0.23999999999999999" stroke="#000000"/>
    <text x="50.349921259842517" y="301.75445374015749" text-anchor="middle" transform="rotate(-0,50.349921259842517,298.75445374015749)" fill="#000000" font-family="Sans" font-size="8">0</text>
    <path d="M83.843010559495042 293.75445374015749L83.843010559495042 289.63445374015748" fill="none" stroke-width="0.23999999999999999" stroke="#000000"/>
    <text x="83.843010559495042" y="301.75445374015749" text-anchor="middle" transform="rotate(-0,83.843010559495042,298.75445374015749)" fill="#000000" font-family="Sans" font-size="8">200</text>
    <path d="M117.33609985914758 293.75445374015749L117.33609985914758 289.63445374015748" fill="none" stroke-width="0.23999999999999999" stroke="#000000"/>
    <text x="117.33609985914758" y="301.75445374015749" text-anchor="middle" transform="rotate(-0,117.33609985914758,298.75445374015749)" fill="#000000" font-family="Sans" font-size="8">400</text>
    <path d="M150.82918915880009 293.75445374015749L150.82918915880009 289.63445374015748" fill="none" stroke-width="0.23999999999999999" stroke="#000000"/>
    <text x="150.82918915880009" y="301.75445374015749" text-anchor="middle" transform="rotate(-0,150.82918915880009,298.75445374015749)" fill="#000000" font-family="Sans" font-size="8">600</text>
    <path d="M184.32227845845264 293.75445374015749L184.32227845845264 289.63445374015748" fill="none" stroke-width="0.23999999999999999" stroke="#000000"/>
    <text x="184.32227845845264" y="301.75445374015749" text-anchor="middle" transform="rotate(-0,184.32227845845264,298.75445374015749)" fill="#000000" font-family="Sans" font-size="8">800</text>
    <path d="M217.81536775810517 293.75445374015749L217.81536775810517 289.63445374015748" fill="none" stroke-width="0.23999999999999999" stroke="#000000"/>
    <text x="217.81536775810517" y="301.75445374015749" text-anchor="middle" transform="rotate(-0,217.81536775810517,298.75445374015749)" fill="#000000" font-family="Sans" font-size="8">1000</text>
    <path d="M251.30845705775769 293.75445374015749L251.30845705775769 289.63445374015748" fill="none" stroke-width="0.23999999999999999" stroke="#000000"/>
    <text x="251.30845705775769" y="301.75445374015749" text-anchor="middle" transform="rotate(-0,251.30845705775769,298.75445374015749)" fill="#000000" font-family="Sans" font-size="8">1200</text>
    <path d="M102.66588207218592 307.75445374015749L102.66588207218592 328.08106791338582L198.99249624541426 328.08106791338582L198.99249624541426 307.75445374015749L102.66588207218592 307.75445374015749z" fill="#ffffff" stroke="none"/>
    <text x="150.82918915880009" y="321.41776082677166" text-anchor="middle" transform="rotate(-0,150.82918915880009,317.91776082677166)" fill="#000000" font-family="Verdana" font-size="10" font-weight="bold">Frequency - kHz</text>
    <path d="M50.349921259842517 289.63445374015748L50.349921259842517 37.349921259842432" fill="none" stroke-width="0.23999999999999999" stroke="#000000"/>
    <path d="M46.22992125984252 289.63445374015748L50.349921259842517 289.63445374015748" fill="none" stroke-width="0.23999999999999999" stroke="#000000"/>
    <text x="41.229921259842513" y="292.63445374015748" text-anchor="middle" transform="rotate(-0,41.229921259842513,289.63445374015748)" fill="#000000" font-family="Sans" font-size="8">0</text>
    <path d="M46.22992125984252 247.58703166010497L50.349921259842517 247.58703166010497" fill="none" stroke-width="0.23999999999999999" stroke="#000000"/>
    <text x="37.229921259842513" y="250.58703166010497" text-anchor="middle" transform="rotate(-0,37.229921259842513,247.58703166010497)" fill="#000000" font-family="Sans" font-size="8">0.2</text>
    <path d="M46.229921259842527 205.53960958005246L50.349921259842525 205.53960958005246" fill="none" stroke-width="0.23999999999999999" stroke="#000000"/>
    <text x="37.229921259842527" y="208.53960958005246" text-anchor="middle" transform="rotate(-0,37.229921259842527,205.53960958005246)" fill="#000000" font-family="Sans" font-size="8">0.4</text>
    <path d="M46.229921259842527 163.49218749999997L50.349921259842525 163.49218749999997" fill="none" stroke-width="0.23999999999999999" stroke="#000000"/>
    <text x="37.229921259842527" y="166.49218749999997" text-anchor="middle" transform="rotate(-0,37.229921259842527,163.49218749999997)" fill="#000000" font-family="Sans" font-size="8">0.6</text>
    <path d="M46.229921259842527 121.44476541994743L50.349921259842525 121.44476541994743" fill="none" stroke-width="0.23999999999999999" stroke="#000000"/>
    <text x="37.229921259842527" y="124.44476541994743" text-anchor="middle" transform="rotate(-0,37.229921259842527,121.44476541994743)" fill="#000000" font-family="Sans" font-size="8">0.8</text>
    <path d="M46.229921259842534 79.397343339894945L50.349921259842532 79.397343339894945" fill="none" stroke-width="0.23999999999999999" stroke="#000000"/>
    <text x="41.229921259842527" y="82.397343339894945" text-anchor="middle" transform="rotate(-0,41.229921259842527,79.397343339894945)" fill="#000000" font-family="Sans" font-size="8">1</text>
    <path d="M46.229921259842534 37.349921259842461L50.349921259842532 37.349921259842461" fill="none" stroke-width="0.23999999999999999" stroke="#000000"/>
    <text x="37.229921259842527" y="40.349921259842461" text-anchor="middle" transform="rotate(-0,37.229921259842527,37.349921259842461)" fill="#000000" font-family="Sans" font-size="8">1.2</text>
    <path d="M3.9033070866141735 147.3288804133858L3.9033070866141735 179.65549458661414L24.229921259842524 179.65549458661414L24.229921259842524 147.3288804133858L3.9033070866141735 147.3288804133858z" fill="#ffffff" stroke="none"/>
    <text x="14.066614173228349" y="166.99218749999997" text-anchor="middle" transform="rotate(-90,14.066614173228349,163.49218749999997)" fill="#000000" font-family="Verdana" font-size="10" font-weight="bold">Gain</text>
    <g clip-path="url(#clip2)">
      <path d="M50.366667804492344 79.397343339894974L51.857110278326878 56.037664406532464L67.09646590966878 85.237263073235596L84.847803238484616 114.43686173993873L117.33609985914758 207.87557747338874L184.32227845845264 242.91509587343248L217.81536775810517 289.63445374015748" fill="none" stroke-width="0.23999999999999999" stroke="#000080"/>
    </g>
    <path d="M50.366667804492344 76.897343339894974L52.866667804492344 79.397343339894974L50.366667804492344 81.897343339894974L47.866667804492344 79.397343339894974L50.366667804492344 76.897343339894974z" fill="#000080" stroke="none"/>
    <path d="M50.366667804492344 76.897343339894974L52.866667804492344 79.397343339894974L50.366667804492344 81.897343339894974L47.866667804492344 79.397343339894974L50.366667804492344 76.897343339894974z" fill="none" stroke-linecap="round" stroke-width="0.5" stroke="#000080"/>
    <path d="M51.857110278326878 53.537664406532464L54.357110278326878 56.037664406532464L51.857110278326878 58.537664406532464L49.357110278326878 56.037664406532464L51.857110278326878 53.537664406532464z" fill="#000080" stroke="none"/>
    <path d="M51.857110278326878 53.537664406532464L54.357110278326878 56.037664406532464L51.857110278326878 58.537664406532464L49.357110278326878 56.037664406532464L51.857110278326878 53.537664406532464z" fill="none" stroke-linecap="round" stroke-width="0.5" stroke="#000080"/>
    <path d="M67.09646590966878 82.737263073235596L69.59646590966878 85.237263073235596L67.09646590966878 87.737263073235596L64.59646590966878 85.237263073235596L67.09646590966878 82.737263073235596z" fill="#000080" stroke="none"/>
    <path d="M67.09646590966878 82.737263073235596L69.59646590966878 85.237263073235596L67.09646590966878 87.737263073235596L64.59646590966878 85.237263073235596L67.09646590966878 82.737263073235596z" fill="none" stroke-linecap="round" stroke-width="0.5" stroke="#000080"/>
    <path d="M84.847803238484616 111.93686173993873L87.347803238484616 114.43686173993873L84.847803238484616 116.93686173993873L82.347803238484616 114.43686173993873L84.847803238484616 111.93686173993873z" fill="#000080" stroke="none"/>
    <path d="M84.847803238484616 111.93686173993873L87.347803238484616 114.43686173993873L84.847803238484616 116.93686173993873L82.347803238484616 114.43686173993873L84.847803238484616 111.93686173993873z" fill="none" stroke-linecap="round" stroke-width="0.5" stroke="#000080"/>
    <path d="M117.33609985914758 205.37557747338874L119.83609985914758 207.87557747338874L117.33609985914758 210.37557747338874L114.83609985914758 207.87557747338874L117.33609985914758 205.37557747338874z" fill="#000080" stroke="none"/>
    <path d="M117.33609985914758 205.37557747338874L119.83609985914758 207.87557747338874L117.33609985914758 210.37557747338874L114.83609985914758 207.87557747338874L117.33609985914758 205.37557747338874z" fill="none" stroke-linecap="round" stroke-width="0.5" stroke="#000080"/>
    <path d="M184.32227845845264 240.41509587343248L186.82227845845264 242.91509587343248L184.32227845845264 245.41509587343248L181.82227845845264 242.91509587343248L184.32227845845264 240.41509587343248z" fill="#000080" stroke="none"/>
    <path d="M184.32227845845264 240.41509587343248L186.82227845845264 242.91509587343248L184.32227845845264 245.41509587343248L181.82227845845264 242.91509587343248L184.32227845845264 240.41509587343248z" fill="none" stroke-linecap="round" stroke-width="0.5" stroke="#000080"/>
    <path d="M217.81536775810517 287.13445374015748L220.31536775810517 289.63445374015748L217.81536775810517 292.13445374015748L215.31536775810517 289.63445374015748L217.81536775810517 287.13445374015748z" fill="#000080" stroke="none"/>
    <path d="M217.81536775810517 287.13445374015748L220.31536775810517 289.63445374015748L217.81536775810517 292.13445374015748L215.31536775810517 289.63445374015748L217.81536775810517 287.13445374015748z" fill="none" stroke-linecap="round" stroke-width="0.5" stroke="#000080"/>
    <path d="M97.463126166674101 3.9033070866141735L97.463126166674101 28.22992125984252L258.78974033990244 28.22992125984252L258.78974033990244 3.9033070866141735L97.463126166674101 3.9033070866141735z" fill="#ffffff" stroke="none"/>
    <text x="178.12643325328827" y="20.566614173228345" text-anchor="middle" transform="rotate(-0,178.12643325328827,16.066614173228345)" fill="#000000" font-family="Verdana" font-size="14" font-weight="bold">Frequency Vs. Gain</text>
    <g clip-path="url(#clip3)">
      <path d="M267.92845705775767 171.6121875L267.92845705775767 188.93880167322834L352.34955941996236 188.93880167322834L352.34955941996236 171.6121875L267.92845705775767 171.6121875z" fill="#ffffff" stroke-width="0.23999999999999999" stroke="#000000"/>
      <path d="M271.59176414437184 180.27549458661417L292.85160666405687 180.27549458661417" fill="none" stroke-width="0.23999999999999999" stroke="#000080"/>
      <path d="M282.22168540421438 177.77549458661417L284.72168540421438 180.27549458661417L282.22168540421438 182.77549458661417L279.72168540421438 180.27549458661417L282.22168540421438 177.77549458661417z" fill="#000080" stroke="none"/>
      <path d="M282.22168540421438 177.77549458661417L284.72168540421438 180.27549458661417L282.22168540421438 182.77549458661417L279.72168540421438 180.27549458661417L282.22168540421438 177.77549458661417z" fill="none" stroke-linecap="round" stroke-width="0.5" stroke="#000080"/>
      <text x="322.18625233334819" y="183.27549458661417" text-anchor="middle" transform="rotate(-0,322.18625233334819,180.27549458661417)" fill="#000000" font-family="Sans" font-size="8">Experimental</text>
    </g>
  </g>
</svg>
