<?xml version="1.0" encoding="UTF-8"?>
<svg xmlns="http://www.w3.org/2000/svg" xmlns:xlink="http://www.w3.org/1999/xlink" version="1.1" width="356.29815673828125" height="332.03125">
  <defs>
    <clipPath id="clip1">
      <path d="M0 0L356.29815673828125 0L356.29815673828125 332.03125L0 332.03125L0 0"/>
    </clipPath>
    <clipPath id="clip2">
      <path d="M47.349921259842525 37.349921259842517L229.35374728946235 37.349921259842517L229.35374728946235 289.68132874015748L47.349921259842525 289.68132874015748L47.349921259842525 37.349921259842517"/>
    </clipPath>
    <clipPath id="clip3">
      <path d="M245.85374728946238 166.515625L352.51484965166708 166.515625L352.51484965166708 194.08223917322834L245.85374728946238 194.08223917322834L245.85374728946238 166.515625"/>
    </clipPath>
  </defs>
  <g clip-path="url(#clip1)">
    <path d="M0.12 0.12L0.12 331.91125L356.17815673828125 331.91125L356.17815673828125 0.12L0.12 0.12z" fill="#ffffff" stroke-width="0.23999999999999999" stroke="#000000"/>
    <path d="M47.349921259842525 37.349921259842517L47.349921259842525 289.68132874015748L229.35374728946235 289.68132874015748L229.35374728946235 37.349921259842517L47.349921259842525 37.349921259842517z" fill="#c0c0c0" stroke-width="0.23999999999999999" stroke="#848284"/>
    <path d="M47.349921259842525 289.68132874015748L229.35374728946235 289.68132874015748" fill="none" stroke-width="0.40000000596046448" stroke="#000000"/>
    <path d="M47.349921259842525 226.59847687007874L229.35374728946235 226.59847687007874" fill="none" stroke-width="0.40000000596046448" stroke="#000000"/>
    <path d="M47.349921259842525 163.515625L229.35374728946235 163.515625" fill="none" stroke-width="0.40000000596046448" stroke="#000000"/>
    <path d="M47.349921259842525 100.43277312992124L229.35374728946235 100.43277312992124" fill="none" stroke-width="0.40000000596046448" stroke="#000000"/>
    <path d="M47.349921259842525 37.349921259842496L229.35374728946235 37.349921259842496" fill="none" stroke-width="0.40000000596046448" stroke="#000000"/>
    <path d="M47.349921259842525 289.68132874015748L229.35374728946235 289.68132874015748" fill="none" stroke-width="0.23999999999999999" stroke="#000000"/>
    <path d="M47.349921259842525 293.80132874015749L47.349921259842525 289.68132874015748" fill="none" stroke-width="0.23999999999999999" stroke="#000000"/>
    <text x="47.349921259842525" y="301.80132874015749" text-anchor="middle" transform="rotate(-0,47.349921259842525,298.80132874015749)" fill="#000000" font-family="Sans" font-size="8">0</text>
    <path d="M77.683892264779161 293.80132874015749L77.683892264779161 289.68132874015748" fill="none" stroke-width="0.23999999999999999" stroke="#000000"/>
    <text x="77.683892264779161" y="301.80132874015749" text-anchor="middle" transform="rotate(-0,77.683892264779161,298.80132874015749)" fill="#000000" font-family="Sans" font-size="8">200</text>
    <path d="M108.0178632697158 293.80132874015749L108.0178632697158 289.68132874015748" fill="none" stroke-width="0.23999999999999999" stroke="#000000"/>
    <text x="108.0178632697158" y="301.80132874015749" text-anchor="middle" transform="rotate(-0,108.0178632697158,298.80132874015749)" fill="#000000" font-family="Sans" font-size="8">400</text>
    <path d="M138.35183427465245 293.80132874015749L138.35183427465245 289.68132874015748" fill="none" stroke-width="0.23999999999999999" stroke="#000000"/>
    <text x="138.35183427465245" y="301.80132874015749" text-anchor="middle" transform="rotate(-0,138.35183427465245,298.80132874015749)" fill="#000000" font-family="Sans" font-size="8">600</text>
    <path d="M168.68580527958909 293.80132874015749L168.68580527958909 289.68132874015748" fill="none" stroke-width="0.23999999999999999" stroke="#000000"/>
    <text x="168.68580527958909" y="301.80132874015749" text-anchor="middle" transform="rotate(-0,168.68580527958909,298.80132874015749)" fill="#000000" font-family="Sans" font-size="8">800</text>
    <path d="M199.0197762845257 293.80132874015749L199.0197762845257 289.68132874015748" fill="none" stroke-width="0.23999999999999999" stroke="#000000"/>
    <text x="199.0197762845257" y="301.80132874015749" text-anchor="middle" transform="rotate(-0,199.0197762845257,298.80132874015749)" fill="#000000" font-family="Sans" font-size="8">1000</text>
    <path d="M229.35374728946235 293.80132874015749L229.35374728946235 289.68132874015748" fill="none" stroke-width="0.23999999999999999" stroke="#000000"/>
    <text x="229.35374728946235" y="301.80132874015749" text-anchor="middle" transform="rotate(-0,229.35374728946235,298.80132874015749)" fill="#000000" font-family="Sans" font-size="8">1200</text>
    <path d="M90.188527188038279 307.80132874015749L90.188527188038279 328.12794291338582L186.51514136126661 328.12794291338582L186.51514136126661 307.80132874015749L90.188527188038279 307.80132874015749z" fill="#ffffff" stroke="none"/>
    <text x="138.35183427465245" y="321.46463582677166" text-anchor="middle" transform="rotate(-0,138.35183427465245,317.96463582677166)" fill="#000000" font-family="Verdana" font-size="10" font-weight="bold">Frequency - kHz</text>
    <path d="M47.349921259842525 289.68132874015748L47.349921259842525 37.349921259842489" fill="none" stroke-width="0.23999999999999999" stroke="#000000"/>
    <path d="M43.229921259842527 289.68132874015748L47.349921259842525 289.68132874015748" fill="none" stroke-width="0.23999999999999999" stroke="#000000"/>
    <text x="38.229921259842527" y="292.68132874015748" text-anchor="middle" transform="rotate(-0,38.229921259842527,289.68132874015748)" fill="#000000" font-family="Sans" font-size="8">0</text>
    <path d="M43.229921259842534 226.59847687007874L47.349921259842532 226.59847687007874" fill="none" stroke-width="0.23999999999999999" stroke="#000000"/>
    <text x="35.729921259842527" y="229.59847687007874" text-anchor="middle" transform="rotate(-0,35.729921259842527,226.59847687007874)" fill="#000000" font-family="Sans" font-size="8">10</text>
    <path d="M43.229921259842534 163.51562499999997L47.349921259842532 163.51562499999997" fill="none" stroke-width="0.23999999999999999" stroke="#000000"/>
    <text x="35.729921259842527" y="166.51562499999997" text-anchor="middle" transform="rotate(-0,35.729921259842527,163.51562499999997)" fill="#000000" font-family="Sans" font-size="8">20</text>
    <path d="M43.229921259842541 100.4327731299212L47.349921259842539 100.4327731299212" fill="none" stroke-width="0.23999999999999999" stroke="#000000"/>
    <text x="35.729921259842541" y="103.4327731299212" text-anchor="middle" transform="rotate(-0,35.729921259842541,100.4327731299212)" fill="#000000" font-family="Sans" font-size="8">30</text>
    <path d="M43.229921259842541 37.349921259842461L47.349921259842539 37.349921259842461" fill="none" stroke-width="0.23999999999999999" stroke="#000000"/>
    <text x="35.729921259842541" y="40.349921259842461" text-anchor="middle" transform="rotate(-0,35.729921259842541,37.349921259842461)" fill="#000000" font-family="Sans" font-size="8">40</text>
    <path d="M3.9033070866141735 84.352317913385832L3.9033070866141735 242.67893208661417L24.229921259842531 242.67893208661417L24.229921259842531 84.352317913385832L3.9033070866141735 84.352317913385832z" fill="#ffffff" stroke="none"/>
    <text x="14.066614173228352" y="167.015625" text-anchor="middle" transform="rotate(-90,14.066614173228352,163.515625)" fill="#000000" font-family="Verdana" font-size="10" font-weight="bold">Phase Shift - microseconds</text>
    <g clip-path="url(#clip2)">
      <path d="M47.365088245344992 289.68132874015748L48.714949955064675 62.583062007873991L62.516906762310846 275.80310132874018L78.593911394927261 278.32641540354331L108.0178632697158 285.26552910925199L168.68580527958909 288.41967170275592L199.0197762845257 289.68132874015748" fill="none" stroke-width="0.23999999999999999" stroke="#000080"/>
      <path d="M47.365088245344992 289.68132874015748L48.714949955064675 188.74876574803147L62.516906762310846 277.06475836614175L78.593911394927261 284.63470059055118L108.0178632697158 289.68132874015748" fill="none" stroke-width="0.23999999999999999" stroke="#ff00ff"/>
    </g>
    <path d="M47.365088245344992 287.18132874015748L49.865088245344992 289.68132874015748L47.365088245344992 292.18132874015748L44.865088245344992 289.68132874015748L47.365088245344992 287.18132874015748z" fill="#000080" stroke="none"/>
    <path d="M47.365088245344992 287.18132874015748L49.865088245344992 289.68132874015748L47.365088245344992 292.18132874015748L44.865088245344992 289.68132874015748L47.365088245344992 287.18132874015748z" fill="none" stroke-linecap="round" stroke-width="0.5" stroke="#000080"/>
    <path d="M48.714949955064675 60.083062007873991L51.214949955064675 62.583062007873991L48.714949955064675 65.083062007873991L46.214949955064675 62.583062007873991L48.714949955064675 60.083062007873991z" fill="#000080" stroke="none"/>
    <path d="M48.714949955064675 60.083062007873991L51.214949955064675 62.583062007873991L48.714949955064675 65.083062007873991L46.214949955064675 62.583062007873991L48.714949955064675 60.083062007873991z" fill="none" stroke-linecap="round" stroke-width="0.5" stroke="#000080"/>
    <path d="M62.516906762310846 273.30310132874018L65.016906762310839 275.80310132874018L62.516906762310846 278.30310132874018L60.016906762310846 275.80310132874018L62.516906762310846 273.30310132874018z" fill="#000080" stroke="none"/>
    <path d="M62.516906762310846 273.30310132874018L65.016906762310839 275.80310132874018L62.516906762310846 278.30310132874018L60.016906762310846 275.80310132874018L62.516906762310846 273.30310132874018z" fill="none" stroke-linecap="round" stroke-width="0.5" stroke="#000080"/>
    <path d="M78.593911394927261 275.82641540354331L81.093911394927261 278.32641540354331L78.593911394927261 280.82641540354331L76.093911394927261 278.32641540354331L78.593911394927261 275.82641540354331z" fill="#000080" stroke="none"/>
    <path d="M78.593911394927261 275.82641540354331L81.093911394927261 278.32641540354331L78.593911394927261 280.82641540354331L76.093911394927261 278.32641540354331L78.593911394927261 275.82641540354331z" fill="none" stroke-linecap="round" stroke-width="0.5" stroke="#000080"/>
    <path d="M108.0178632697158 282.76552910925199L110.5178632697158 285.26552910925199L108.0178632697158 287.76552910925199L105.5178632697158 285.26552910925199L108.0178632697158 282.76552910925199z" fill="#000080" stroke="none"/>
    <path d="M108.0178632697158 282.76552910925199L110.5178632697158 285.26552910925199L108.0178632697158 287.76552910925199L105.5178632697158 285.26552910925199L108.0178632697158 282.76552910925199z" fill="none" stroke-linecap="round" stroke-width="0.5" stroke="#000080"/>
    <path d="M168.68580527958909 285.91967170275592L171.18580527958909 288.41967170275592L168.68580527958909 290.91967170275592L166.18580527958909 288.41967170275592L168.68580527958909 285.91967170275592z" fill="#000080" stroke="none"/>
    <path d="M168.68580527958909 285.91967170275592L171.18580527958909 288.41967170275592L168.68580527958909 290.91967170275592L166.18580527958909 288.41967170275592L168.68580527958909 285.91967170275592z" fill="none" stroke-linecap="round" stroke-width="0.5" stroke="#000080"/>
    <path d="M199.0197762845257 287.18132874015748L201.5197762845257 289.68132874015748L199.0197762845257 292.18132874015748L196.5197762845257 289.68132874015748L199.0197762845257 287.18132874015748z" fill="#000080" stroke="none"/>
    <path d="M199.0197762845257 287.18132874015748L201.5197762845257 289.68132874015748L199.0197762845257 292.18132874015748L196.5197762845257 289.68132874015748L199.0197762845257 287.18132874015748z" fill="none" stroke-linecap="round" stroke-width="0.5" stroke="#000080"/>
    <path d="M44.865088245344992 287.18132874015748L44.865088245344992 292.18132874015748L49.865088245344992 292.18132874015748L49.865088245344992 287.18132874015748L44.865088245344992 287.18132874015748z" fill="#ff00ff" stroke="none"/>
    <path d="M44.865088245344992 287.18132874015748L44.865088245344992 292.18132874015748L49.865088245344992 292.18132874015748L49.865088245344992 287.18132874015748L44.865088245344992 287.18132874015748z" fill="none" stroke-linecap="round" stroke-width="0.5" stroke="#ff00ff"/>
    <path d="M46.214949955064675 186.24876574803147L46.214949955064675 191.24876574803147L51.214949955064675 191.24876574803147L51.214949955064675 186.24876574803147L46.214949955064675 186.24876574803147z" fill="#ff00ff" stroke="none"/>
    <path d="M46.214949955064675 186.24876574803147L46.214949955064675 191.24876574803147L51.214949955064675 191.24876574803147L51.214949955064675 186.24876574803147L46.214949955064675 186.24876574803147z" fill="none" stroke-linecap="round" stroke-width="0.5" stroke="#ff00ff"/>
    <path d="M60.016906762310846 274.56475836614175L60.016906762310846 279.56475836614175L65.016906762310839 279.56475836614175L65.016906762310839 274.56475836614175L60.016906762310846 274.56475836614175z" fill="#ff00ff" stroke="none"/>
    <path d="M60.016906762310846 274.56475836614175L60.016906762310846 279.56475836614175L65.016906762310839 279.56475836614175L65.016906762310839 274.56475836614175L60.016906762310846 274.56475836614175z" fill="none" stroke-linecap="round" stroke-width="0.5" stroke="#ff00ff"/>
    <path d="M76.093911394927261 282.13470059055118L76.093911394927261 287.13470059055118L81.093911394927261 287.13470059055118L81.093911394927261 282.13470059055118L76.093911394927261 282.13470059055118z" fill="#ff00ff" stroke="none"/>
    <path d="M76.093911394927261 282.13470059055118L76.093911394927261 287.13470059055118L81.093911394927261 287.13470059055118L81.093911394927261 282.13470059055118L76.093911394927261 282.13470059055118z" fill="none" stroke-linecap="round" stroke-width="0.5" stroke="#ff00ff"/>
    <path d="M105.5178632697158 287.18132874015748L105.5178632697158 292.18132874015748L110.5178632697158 292.18132874015748L110.5178632697158 287.18132874015748L105.5178632697158 287.18132874015748z" fill="#ff00ff" stroke="none"/>
    <path d="M105.5178632697158 287.18132874015748L105.5178632697158 292.18132874015748L110.5178632697158 292.18132874015748L110.5178632697158 287.18132874015748L105.5178632697158 287.18132874015748z" fill="none" stroke-linecap="round" stroke-width="0.5" stroke="#ff00ff"/>
    <path d="M73.985771282526457 3.9033070866141735L73.985771282526457 28.22992125984252L282.31238545575479 28.22992125984252L282.31238545575479 3.9033070866141735L73.985771282526457 3.9033070866141735z" fill="#ffffff" stroke="none"/>
    <text x="178.14907836914062" y="20.566614173228345" text-anchor="middle" transform="rotate(-0,178.14907836914062,16.066614173228345)" fill="#000000" font-family="Verdana" font-size="14" font-weight="bold">Phase Shift vs Frequency</text>
    <g clip-path="url(#clip3)">
      <path d="M245.97374728946238 166.635625L245.97374728946238 193.96223917322834L352.39484965166707 193.96223917322834L352.39484965166707 166.635625L245.97374728946238 166.635625z" fill="#ffffff" stroke-width="0.23999999999999999" stroke="#000000"/>
      <path d="M249.63705437607655 175.29893208661417L270.89689689576159 175.29893208661417" fill="none" stroke-width="0.23999999999999999" stroke="#000080"/>
      <path d="M260.2669756359191 172.79893208661417L262.7669756359191 175.29893208661417L260.2669756359191 177.79893208661417L257.7669756359191 175.29893208661417L260.2669756359191 172.79893208661417z" fill="#000080" stroke="none"/>
      <path d="M260.2669756359191 172.79893208661417L262.7669756359191 175.29893208661417L260.2669756359191 177.79893208661417L257.7669756359191 175.29893208661417L260.2669756359191 172.79893208661417z" fill="none" stroke-linecap="round" stroke-width="0.5" stroke="#000080"/>
      <text x="300.23154256505291" y="178.29893208661417" text-anchor="middle" transform="rotate(-0,300.23154256505291,175.29893208661417)" fill="#000000" font-family="Sans" font-size="8">Experimental</text>
      <path d="M249.63705437607655 185.29893208661417L270.89689689576159 185.29893208661417" fill="none" stroke-width="0.23999999999999999" stroke="#ff00ff"/>
      <path d="M257.7669756359191 182.79893208661417L257.7669756359191 187.79893208661417L262.7669756359191 187.79893208661417L262.7669756359191 182.79893208661417L257.7669756359191 182.79893208661417z" fill="#ff00ff" stroke="none"/>
      <path d="M257.7669756359191 182.79893208661417L257.7669756359191 187.79893208661417L262.7669756359191 187.79893208661417L262.7669756359191 182.79893208661417L257.7669756359191 182.79893208661417z" fill="none" stroke-linecap="round" stroke-width="0.5" stroke="#ff00ff"/>
      <text x="311.23154256505291" y="188.29893208661417" text-anchor="middle" transform="rotate(-0,311.23154256505291,185.29893208661417)" fill="#000000" font-family="Sans" font-size="8">RC Low Pass Filter</text>
    </g>
  </g>
</svg>
