<?xml version="1.0" encoding="UTF-8"?>
<svg xmlns="http://www.w3.org/2000/svg" xmlns:xlink="http://www.w3.org/1999/xlink" version="1.1" width="467.23779296875" height="347.98828125">
  <defs>
    <clipPath id="clip1">
      <path d="M0 0L467.23779296875 0L467.23779296875 347.98828125L0 347.98828125L0 0"/>
    </clipPath>
    <clipPath id="clip2">
      <path d="M50.349921259842525 37.349921259842517L397.79338351993101 37.349921259842517L397.79338351993101 305.63835999015748L50.349921259842525 305.63835999015748L50.349921259842525 37.349921259842517"/>
    </clipPath>
    <clipPath id="clip3">
      <path d="M415.79338351993113 174.494140625L463.45448588213583 174.494140625L463.45448588213583 202.06075479822834L415.79338351993113 202.06075479822834L415.79338351993113 174.494140625"/>
    </clipPath>
  </defs>
  <g clip-path="url(#clip1)">
    <path d="M0.12 0.12L0.12 347.86828125L467.11779296875 347.86828125L467.11779296875 0.12L0.12 0.12z" fill="#ffffff" stroke-width="0.23999999999999999" stroke="#000000"/>
    <path d="M50.349921259842525 37.349921259842517L50.349921259842525 305.63835999015748L397.79338351993101 305.63835999015748L397.79338351993101 37.349921259842517L50.349921259842525 37.349921259842517z" fill="#c0c0c0" stroke-width="0.23999999999999999" stroke="#848284"/>
    <path d="M50.349921259842525 305.63835999015748L397.79338351993101 305.63835999015748" fill="none" stroke-width="0.40000000596046448" stroke="#000000"/>
    <path d="M50.349921259842525 283.28099009596457L397.79338351993101 283.28099009596457" fill="none" stroke-width="0.40000000596046448" stroke="#000000"/>
    <path d="M50.349921259842525 260.92362020177166L397.79338351993101 260.92362020177166" fill="none" stroke-width="0.40000000596046448" stroke="#000000"/>
    <path d="M50.349921259842525 238.56625030757874L397.79338351993101 238.56625030757874" fill="none" stroke-width="0.40000000596046448" stroke="#000000"/>
    <path d="M50.349921259842525 216.20888041338583L397.79338351993101 216.20888041338583" fill="none" stroke-width="0.40000000596046448" stroke="#000000"/>
    <path d="M50.349921259842525 193.85151051919291L397.79338351993101 193.85151051919291" fill="none" stroke-width="0.40000000596046448" stroke="#000000"/>
    <path d="M50.349921259842525 171.494140625L397.79338351993101 171.494140625" fill="none" stroke-width="0.40000000596046448" stroke="#000000"/>
    <path d="M50.349921259842525 149.13677073080709L397.79338351993101 149.13677073080709" fill="none" stroke-width="0.40000000596046448" stroke="#000000"/>
    <path d="M50.349921259842525 126.77940083661417L397.79338351993101 126.77940083661417" fill="none" stroke-width="0.40000000596046448" stroke="#000000"/>
    <path d="M50.349921259842525 104.42203094242126L397.79338351993101 104.42203094242126" fill="none" stroke-width="0.40000000596046448" stroke="#000000"/>
    <path d="M50.349921259842525 82.064661048228345L397.79338351993101 82.064661048228345" fill="none" stroke-width="0.40000000596046448" stroke="#000000"/>
    <path d="M50.349921259842525 59.707291154035431L397.79338351993101 59.707291154035431" fill="none" stroke-width="0.40000000596046448" stroke="#000000"/>
    <path d="M50.349921259842525 37.349921259842517L397.79338351993101 37.349921259842517" fill="none" stroke-width="0.40000000596046448" stroke="#000000"/>
    <path d="M50.349921259842525 305.63835999015748L397.79338351993101 305.63835999015748" fill="none" stroke-width="0.23999999999999999" stroke="#000000"/>
    <path d="M50.349921259842525 309.75835999015749L50.349921259842525 305.63835999015748" fill="none" stroke-width="0.23999999999999999" stroke="#000000"/>
    <text x="50.349921259842525" y="317.75835999015749" text-anchor="middle" transform="rotate(-0,50.349921259842525,314.75835999015749)" fill="#000000" font-family="Sans" font-size="8">0</text>
    <path d="M93.780354042353594 309.75835999015749L93.780354042353594 305.63835999015748" fill="none" stroke-width="0.23999999999999999" stroke="#000000"/>
    <text x="93.780354042353594" y="317.75835999015749" text-anchor="middle" transform="rotate(-0,93.780354042353594,314.75835999015749)" fill="#000000" font-family="Sans" font-size="8">0.002</text>
    <path d="M137.21078682486464 309.75835999015749L137.21078682486464 305.63835999015748" fill="none" stroke-width="0.23999999999999999" stroke="#000000"/>
    <text x="137.21078682486464" y="317.75835999015749" text-anchor="middle" transform="rotate(-0,137.21078682486464,314.75835999015749)" fill="#000000" font-family="Sans" font-size="8">0.004</text>
    <path d="M180.64121960737569 309.75835999015749L180.64121960737569 305.63835999015748" fill="none" stroke-width="0.23999999999999999" stroke="#000000"/>
    <text x="180.64121960737569" y="317.75835999015749" text-anchor="middle" transform="rotate(-0,180.64121960737569,314.75835999015749)" fill="#000000" font-family="Sans" font-size="8">0.006</text>
    <path d="M224.07165238988676 309.75835999015749L224.07165238988676 305.63835999015748" fill="none" stroke-width="0.23999999999999999" stroke="#000000"/>
    <text x="224.07165238988676" y="317.75835999015749" text-anchor="middle" transform="rotate(-0,224.07165238988676,314.75835999015749)" fill="#000000" font-family="Sans" font-size="8">0.008</text>
    <path d="M267.50208517239781 309.75835999015749L267.50208517239781 305.63835999015748" fill="none" stroke-width="0.23999999999999999" stroke="#000000"/>
    <text x="267.50208517239781" y="317.75835999015749" text-anchor="middle" transform="rotate(-0,267.50208517239781,314.75835999015749)" fill="#000000" font-family="Sans" font-size="8">0.01</text>
    <path d="M310.93251795490886 309.75835999015749L310.93251795490886 305.63835999015748" fill="none" stroke-width="0.23999999999999999" stroke="#000000"/>
    <text x="310.93251795490886" y="317.75835999015749" text-anchor="middle" transform="rotate(-0,310.93251795490886,314.75835999015749)" fill="#000000" font-family="Sans" font-size="8">0.012</text>
    <path d="M354.36295073741996 309.75835999015749L354.36295073741996 305.63835999015748" fill="none" stroke-width="0.23999999999999999" stroke="#000000"/>
    <text x="354.36295073741996" y="317.75835999015749" text-anchor="middle" transform="rotate(-0,354.36295073741996,314.75835999015749)" fill="#000000" font-family="Sans" font-size="8">0.014</text>
    <path d="M397.79338351993101 309.75835999015749L397.79338351993101 305.63835999015748" fill="none" stroke-width="0.23999999999999999" stroke="#000000"/>
    <text x="397.79338351993101" y="317.75835999015749" text-anchor="middle" transform="rotate(-0,397.79338351993101,314.75835999015749)" fill="#000000" font-family="Sans" font-size="8">0.016</text>
    <path d="M187.9083453032726 323.75835999015749L187.9083453032726 344.08497416338582L260.23495947650093 344.08497416338582L260.23495947650093 323.75835999015749L187.9083453032726 323.75835999015749z" fill="#ffffff" stroke="none"/>
    <text x="224.07165238988676" y="337.42166707677166" text-anchor="middle" transform="rotate(-0,224.07165238988676,333.92166707677166)" fill="#000000" font-family="Verdana" font-size="10" font-weight="bold">Iout - Amps</text>
    <path d="M50.349921259842525 305.63835999015748L50.349921259842525 37.349921259842517" fill="none" stroke-width="0.23999999999999999" stroke="#000000"/>
    <path d="M46.229921259842527 305.63835999015748L50.349921259842525 305.63835999015748" fill="none" stroke-width="0.23999999999999999" stroke="#000000"/>
    <text x="41.229921259842527" y="308.63835999015748" text-anchor="middle" transform="rotate(-0,41.229921259842527,305.63835999015748)" fill="#000000" font-family="Sans" font-size="8">0</text>
    <path d="M46.229921259842527 283.28099009596457L50.349921259842525 283.28099009596457" fill="none" stroke-width="0.23999999999999999" stroke="#000000"/>
    <text x="37.229921259842527" y="286.28099009596457" text-anchor="middle" transform="rotate(-0,37.229921259842527,283.28099009596457)" fill="#000000" font-family="Sans" font-size="8">0.5</text>
    <path d="M46.229921259842527 260.92362020177166L50.349921259842525 260.92362020177166" fill="none" stroke-width="0.23999999999999999" stroke="#000000"/>
    <text x="41.229921259842527" y="263.92362020177166" text-anchor="middle" transform="rotate(-0,41.229921259842527,260.92362020177166)" fill="#000000" font-family="Sans" font-size="8">1</text>
    <path d="M46.229921259842534 238.56625030757874L50.349921259842532 238.56625030757874" fill="none" stroke-width="0.23999999999999999" stroke="#000000"/>
    <text x="37.229921259842527" y="241.56625030757874" text-anchor="middle" transform="rotate(-0,37.229921259842527,238.56625030757874)" fill="#000000" font-family="Sans" font-size="8">1.5</text>
    <path d="M46.229921259842534 216.20888041338583L50.349921259842532 216.20888041338583" fill="none" stroke-width="0.23999999999999999" stroke="#000000"/>
    <text x="41.229921259842527" y="219.20888041338583" text-anchor="middle" transform="rotate(-0,41.229921259842527,216.20888041338583)" fill="#000000" font-family="Sans" font-size="8">2</text>
    <path d="M46.229921259842534 193.85151051919291L50.349921259842532 193.85151051919291" fill="none" stroke-width="0.23999999999999999" stroke="#000000"/>
    <text x="37.229921259842527" y="196.85151051919291" text-anchor="middle" transform="rotate(-0,37.229921259842527,193.85151051919291)" fill="#000000" font-family="Sans" font-size="8">2.5</text>
    <path d="M46.229921259842534 171.494140625L50.349921259842532 171.494140625" fill="none" stroke-width="0.23999999999999999" stroke="#000000"/>
    <text x="41.229921259842527" y="174.494140625" text-anchor="middle" transform="rotate(-0,41.229921259842527,171.494140625)" fill="#000000" font-family="Sans" font-size="8">3</text>
    <path d="M46.229921259842534 149.13677073080709L50.349921259842532 149.13677073080709" fill="none" stroke-width="0.23999999999999999" stroke="#000000"/>
    <text x="37.229921259842527" y="152.13677073080709" text-anchor="middle" transform="rotate(-0,37.229921259842527,149.13677073080709)" fill="#000000" font-family="Sans" font-size="8">3.5</text>
    <path d="M46.229921259842541 126.77940083661417L50.349921259842539 126.77940083661417" fill="none" stroke-width="0.23999999999999999" stroke="#000000"/>
    <text x="41.229921259842541" y="129.77940083661417" text-anchor="middle" transform="rotate(-0,41.229921259842541,126.77940083661417)" fill="#000000" font-family="Sans" font-size="8">4</text>
    <path d="M46.229921259842541 104.42203094242126L50.349921259842539 104.42203094242126" fill="none" stroke-width="0.23999999999999999" stroke="#000000"/>
    <text x="37.229921259842541" y="107.42203094242126" text-anchor="middle" transform="rotate(-0,37.229921259842541,104.42203094242126)" fill="#000000" font-family="Sans" font-size="8">4.5</text>
    <path d="M46.229921259842541 82.064661048228345L50.349921259842539 82.064661048228345" fill="none" stroke-width="0.23999999999999999" stroke="#000000"/>
    <text x="41.229921259842541" y="85.064661048228345" text-anchor="middle" transform="rotate(-0,41.229921259842541,82.064661048228345)" fill="#000000" font-family="Sans" font-size="8">5</text>
    <path d="M46.229921259842541 59.707291154035431L50.349921259842539 59.707291154035431" fill="none" stroke-width="0.23999999999999999" stroke="#000000"/>
    <text x="37.229921259842541" y="62.707291154035431" text-anchor="middle" transform="rotate(-0,37.229921259842541,59.707291154035431)" fill="#000000" font-family="Sans" font-size="8">5.5</text>
    <path d="M46.229921259842541 37.349921259842517L50.349921259842539 37.349921259842517" fill="none" stroke-width="0.23999999999999999" stroke="#000000"/>
    <text x="41.229921259842541" y="40.349921259842517" text-anchor="middle" transform="rotate(-0,41.229921259842541,37.349921259842517)" fill="#000000" font-family="Sans" font-size="8">6</text>
    <path d="M3.9033070866141735 133.83083353838583L3.9033070866141735 209.15744771161417L24.229921259842527 209.15744771161417L24.229921259842527 133.83083353838583L3.9033070866141735 133.83083353838583z" fill="#ffffff" stroke="none"/>
    <text x="14.066614173228349" y="174.994140625" text-anchor="middle" transform="rotate(-90,14.066614173228349,171.494140625)" fill="#000000" font-family="Verdana" font-size="10" font-weight="bold">Vout - Volts</text>
    <g clip-path="url(#clip2)">
      <path d="M170.86937223131071 57.471554164616151L249.04415123983063 169.25840363558072" fill="none" stroke-width="0.23999999999999999" stroke="#000080"/>
      <path d="M165.65772029740938 68.203091713828755L393.01603591385475 70.438828703248035" fill="none" stroke-width="0.23999999999999999" stroke="#ff00ff"/>
    </g>
    <path d="M170.86937223131071 54.971554164616151L173.36937223131071 57.471554164616151L170.86937223131071 59.971554164616151L168.36937223131071 57.471554164616151L170.86937223131071 54.971554164616151z" fill="#000080" stroke="none"/>
    <path d="M170.86937223131071 54.971554164616151L173.36937223131071 57.471554164616151L170.86937223131071 59.971554164616151L168.36937223131071 57.471554164616151L170.86937223131071 54.971554164616151z" fill="none" stroke-linecap="round" stroke-width="0.5" stroke="#000080"/>
    <path d="M249.04415123983063 166.75840363558072L251.54415123983063 169.25840363558072L249.04415123983063 171.75840363558072L246.54415123983063 169.25840363558072L249.04415123983063 166.75840363558072z" fill="#000080" stroke="none"/>
    <path d="M249.04415123983063 166.75840363558072L251.54415123983063 169.25840363558072L249.04415123983063 171.75840363558072L246.54415123983063 169.25840363558072L249.04415123983063 166.75840363558072z" fill="none" stroke-linecap="round" stroke-width="0.5" stroke="#000080"/>
    <path d="M163.15772029740938 65.703091713828755L163.15772029740938 70.703091713828755L168.15772029740938 70.703091713828755L168.15772029740938 65.703091713828755L163.15772029740938 65.703091713828755z" fill="#ff00ff" stroke="none"/>
    <path d="M163.15772029740938 65.703091713828755L163.15772029740938 70.703091713828755L168.15772029740938 70.703091713828755L168.15772029740938 65.703091713828755L163.15772029740938 65.703091713828755z" fill="none" stroke-linecap="round" stroke-width="0.5" stroke="#ff00ff"/>
    <path d="M390.51603591385475 67.938828703248035L390.51603591385475 72.938828703248035L395.51603591385475 72.938828703248035L395.51603591385475 67.938828703248035L390.51603591385475 67.938828703248035z" fill="#ff00ff" stroke="none"/>
    <path d="M390.51603591385475 67.938828703248035L390.51603591385475 72.938828703248035L395.51603591385475 72.938828703248035L395.51603591385475 67.938828703248035L390.51603591385475 67.938828703248035z" fill="none" stroke-linecap="round" stroke-width="0.5" stroke="#ff00ff"/>
    <path d="M182.45558939776083 3.9033070866141735L182.45558939776083 28.22992125984252L284.78220357098917 28.22992125984252L284.78220357098917 3.9033070866141735L182.45558939776083 3.9033070866141735z" fill="#ffffff" stroke="none"/>
    <text x="233.618896484375" y="20.566614173228345" text-anchor="middle" transform="rotate(-0,233.618896484375,16.066614173228345)" fill="#000000" font-family="Verdana" font-size="14" font-weight="bold">Vout vs Iout</text>
    <g clip-path="url(#clip3)">
      <path d="M415.91338351993113 174.614140625L415.91338351993113 201.94075479822834L463.33448588213582 201.94075479822834L463.33448588213582 174.614140625L415.91338351993113 174.614140625z" fill="#ffffff" stroke-width="0.23999999999999999" stroke="#000000"/>
      <path d="M419.5766906065453 183.27744771161417L440.83653312623034 183.27744771161417" fill="none" stroke-width="0.23999999999999999" stroke="#000080"/>
      <path d="M430.20661186638785 180.77744771161417L432.70661186638785 183.27744771161417L430.20661186638785 185.77744771161417L427.70661186638785 183.27744771161417L430.20661186638785 180.77744771161417z" fill="#000080" stroke="none"/>
      <path d="M430.20661186638785 180.77744771161417L432.70661186638785 183.27744771161417L430.20661186638785 185.77744771161417L427.70661186638785 183.27744771161417L430.20661186638785 180.77744771161417z" fill="none" stroke-linecap="round" stroke-width="0.5" stroke="#000080"/>
      <text x="449.17117879552166" y="186.27744771161417" text-anchor="middle" transform="rotate(-0,449.17117879552166,183.27744771161417)" fill="#000000" font-family="Sans" font-size="8">Q9</text>
      <path d="M419.5766906065453 193.27744771161417L440.83653312623034 193.27744771161417" fill="none" stroke-width="0.23999999999999999" stroke="#ff00ff"/>
      <path d="M427.70661186638785 190.77744771161417L427.70661186638785 195.77744771161417L432.70661186638785 195.77744771161417L432.70661186638785 190.77744771161417L427.70661186638785 190.77744771161417z" fill="#ff00ff" stroke="none"/>
      <path d="M427.70661186638785 190.77744771161417L427.70661186638785 195.77744771161417L432.70661186638785 195.77744771161417L432.70661186638785 190.77744771161417L427.70661186638785 190.77744771161417z" fill="none" stroke-linecap="round" stroke-width="0.5" stroke="#ff00ff"/>
      <text x="451.67117879552166" y="196.27744771161417" text-anchor="middle" transform="rotate(-0,451.67117879552166,193.27744771161417)" fill="#000000" font-family="Sans" font-size="8">Q12</text>
    </g>
  </g>
</svg>
